<svg xmlns="http://www.w3.org/2000/svg" width="3000" height="3000" viewBox="0 0 3000 3000"><defs><radialGradient id="glow" cx="0.5" cy="0.42" r="0.5"><stop offset="0" stop-color="#E53935" stop-opacity="0.16"/><stop offset="0.5" stop-color="#E53935" stop-opacity="0.05"/><stop offset="1" stop-color="#E53935" stop-opacity="0"/></radialGradient><linearGradient id="slab" x1="0" y1="0" x2="1" y2="1"><stop offset="0" stop-color="#1D1D26"/><stop offset="0.5" stop-color="#17171E"/><stop offset="1" stop-color="#101016"/></linearGradient></defs><rect x="300" y="300" width="2400" height="2400" rx="380" fill="url(#slab)"/><rect x="300" y="300" width="2400" height="2400" rx="380" fill="url(#glow)"/><rect x="352" y="352" width="2296" height="2296" rx="340" fill="none" stroke="#E53935" stroke-width="16" stroke-opacity="0.85"/><rect x="372" y="372" width="2256" height="2256" rx="320" fill="none" stroke="#FFFFFF" stroke-opacity="0.14" stroke-width="6"/><g transform="translate(1140,700) scale(3.6)"><circle cx="100" cy="100" r="97" fill="none" stroke="#FFFFFF" stroke-opacity="0.16" stroke-width="5"/><circle cx="100" cy="100" r="97" fill="none" stroke="#FFFFFF" stroke-opacity="0.9" stroke-width="2" stroke-dasharray="1 14" stroke-linecap="round"/><rect x="88" y="14" width="24" height="56" rx="9" fill="#FFFFFF" transform="rotate(0 100 100)"/><rect x="88" y="14" width="24" height="56" rx="9" fill="#FFFFFF" transform="rotate(45 100 100)"/><rect x="88" y="14" width="24" height="56" rx="9" fill="#FFFFFF" transform="rotate(90 100 100)"/><rect x="88" y="14" width="24" height="56" rx="9" fill="#FFFFFF" transform="rotate(135 100 100)"/><rect x="88" y="14" width="24" height="56" rx="9" fill="#FFFFFF" transform="rotate(180 100 100)"/><rect x="88" y="14" width="24" height="56" rx="9" fill="#FFFFFF" transform="rotate(225 100 100)"/><rect x="88" y="14" width="24" height="56" rx="9" fill="#FFFFFF" transform="rotate(270 100 100)"/><rect x="88" y="14" width="24" height="56" rx="9" fill="#FFFFFF" transform="rotate(315 100 100)"/><circle cx="100" cy="100" r="48" fill="#FFFFFF"/><circle cx="100" cy="100" r="20" fill="#0B0B10"/><circle cx="100" cy="100" r="9" fill="#FFFFFF"/></g><text x="1500" y="1866" text-anchor="middle" font-family="DejaVu Sans,Arial,sans-serif" font-weight="700" font-size="72" fill="#EDEDED" fill-opacity="0.6" letter-spacing="26">AUTOMOTIVE</text><text x="1500" y="2096" text-anchor="middle" font-family="DejaVu Sans,Arial,sans-serif" font-weight="700" font-size="140.35087719298247" fill="#FFFFFF" letter-spacing="7">AUTOMOTIVE MECHANIC</text><rect x="640" y="2230" width="1720" height="18" rx="9" fill="#E53935"/><text x="1500" y="2396" text-anchor="middle" font-family="DejaVu Sans,Arial,sans-serif" font-weight="700" font-size="152" fill="#E53935" letter-spacing="16">GREASY HANDS,</text><text x="1500" y="2584" text-anchor="middle" font-family="DejaVu Sans,Arial,sans-serif" font-weight="700" font-size="152" fill="#E53935" letter-spacing="16">FAT PAYCHECKS</text><text x="1500" y="2634" text-anchor="middle" font-family="DejaVu Sans,Arial,sans-serif" font-weight="700" font-size="44" fill="#FFFFFF" fill-opacity="0.35" letter-spacing="18">T R A D E L I F T</text></svg>