<svg xmlns="http://www.w3.org/2000/svg" width="3000" height="3000" viewBox="0 0 3000 3000"><defs><radialGradient id="glow" cx="0.5" cy="0.42" r="0.5"><stop offset="0" stop-color="#5C6BC0" stop-opacity="0.16"/><stop offset="0.5" stop-color="#5C6BC0" stop-opacity="0.05"/><stop offset="1" stop-color="#5C6BC0" stop-opacity="0"/></radialGradient><linearGradient id="slab" x1="0" y1="0" x2="1" y2="1"><stop offset="0" stop-color="#1D1D26"/><stop offset="0.5" stop-color="#17171E"/><stop offset="1" stop-color="#101016"/></linearGradient></defs><rect x="300" y="300" width="2400" height="2400" rx="380" fill="url(#slab)"/><rect x="300" y="300" width="2400" height="2400" rx="380" fill="url(#glow)"/><rect x="352" y="352" width="2296" height="2296" rx="340" fill="none" stroke="#5C6BC0" stroke-width="16" stroke-opacity="0.85"/><rect x="372" y="372" width="2256" height="2256" rx="320" fill="none" stroke="#FFFFFF" stroke-opacity="0.14" stroke-width="6"/><g transform="translate(1140,700) scale(3.6)"><circle cx="100" cy="100" r="97" fill="none" stroke="#FFFFFF" stroke-opacity="0.16" stroke-width="5"/><circle cx="100" cy="100" r="97" fill="none" stroke="#FFFFFF" stroke-opacity="0.9" stroke-width="2" stroke-dasharray="1 14" stroke-linecap="round"/><path d="M46 30 h108 v30 h-34 v80 h34 v30 h-108 v-30 h34 v-80 h-34 z" fill="#FFFFFF"/><circle cx="58" cy="45" r="6" fill="#0000"/><circle cx="142" cy="45" r="6" opacity="0"/><path d="M100 6 v34 a24 24 0 0 0 48 0 v-18" fill="none" stroke="#FFFFFF" stroke-width="13" stroke-linecap="round"/></g><text x="1500" y="1866" text-anchor="middle" font-family="DejaVu Sans,Arial,sans-serif" font-weight="700" font-size="72" fill="#EDEDED" fill-opacity="0.6" letter-spacing="26">IRONWORK</text><text x="1500" y="2096" text-anchor="middle" font-family="DejaVu Sans,Arial,sans-serif" font-weight="700" font-size="230" fill="#FFFFFF" letter-spacing="14">IRONWORKER</text><rect x="640" y="2230" width="1720" height="18" rx="9" fill="#5C6BC0"/><text x="1500" y="2396" text-anchor="middle" font-family="DejaVu Sans,Arial,sans-serif" font-weight="700" font-size="152" fill="#5C6BC0" letter-spacing="16">COWBOY OF</text><text x="1500" y="2584" text-anchor="middle" font-family="DejaVu Sans,Arial,sans-serif" font-weight="700" font-size="152" fill="#5C6BC0" letter-spacing="16">THE SKY</text><text x="1500" y="2634" text-anchor="middle" font-family="DejaVu Sans,Arial,sans-serif" font-weight="700" font-size="44" fill="#FFFFFF" fill-opacity="0.35" letter-spacing="18">T R A D E L I F T</text></svg>